<?xml version="1.0" standalone="no"?>
<!DOCTYPE svg PUBLIC "-//W3C//DTD SVG 20010904//EN"
 "http://www.w3.org/TR/2001/REC-SVG-20010904/DTD/svg10.dtd">
<svg version="1.0" xmlns="http://www.w3.org/2000/svg"
 width="1024.000000pt" height="1024.000000pt" viewBox="0 0 1024.000000 1024.000000"
 preserveAspectRatio="xMidYMid meet">

<g transform="translate(0.000000,1024.000000) scale(0.100000,-0.100000)"
fill="#000000" stroke="none">
<path d="M0 5120 l0 -5120 5120 0 5120 0 0 5120 0 5120 -5120 0 -5120 0 0
-5120z m8583 1998 c71 -40 80 -62 85 -201 5 -143 -3 -154 -13 -17 -3 52 -11
109 -16 127 -13 41 -58 79 -111 95 -53 16 -37 19 -728 -147 -80 -19 -190 -44
-245 -56 -55 -11 -131 -29 -170 -40 -38 -10 -117 -28 -175 -39 -58 -12 -151
-33 -208 -47 -57 -14 -105 -23 -108 -21 -6 6 288 78 381 93 22 4 87 19 145 35
58 16 197 50 310 75 236 53 553 129 655 156 83 22 142 18 198 -13z m-82 -118
c10 -14 19 -38 21 -55 3 -28 1 -30 -47 -37 -51 -9 -248 -53 -415 -94 -52 -12
-160 -37 -240 -54 -80 -18 -237 -54 -350 -81 -113 -28 -267 -63 -342 -79 -75
-16 -231 -52 -345 -79 -275 -66 -444 -105 -823 -191 -173 -39 -423 -98 -555
-131 -132 -32 -323 -77 -425 -98 -102 -22 -360 -81 -575 -132 -214 -50 -489
-113 -610 -140 -121 -27 -323 -73 -450 -103 -126 -30 -329 -76 -450 -101 -121
-26 -261 -57 -310 -70 -50 -13 -180 -42 -290 -65 -110 -23 -297 -66 -415 -95
-255 -63 -304 -73 -349 -77 -33 -3 -35 -1 -44 36 -9 34 -7 42 10 56 19 15 305
88 643 164 85 20 207 47 270 61 63 15 194 44 290 65 204 45 415 94 660 151 96
22 245 56 330 74 85 18 279 63 430 100 151 36 361 86 465 110 105 24 327 75
495 114 168 38 427 98 575 131 149 34 329 75 400 91 156 36 625 144 860 199
94 22 231 53 305 70 125 29 739 172 1085 254 83 19 156 34 164 33 8 -1 22 -13
32 -27z m-2349 -10 c12 -16 27 -30 33 -30 6 0 12 -11 13 -26 1 -14 -2 -23 -8
-19 -6 3 -10 13 -10 21 0 8 -3 14 -7 14 -5 0 -21 16 -36 35 -15 19 -23 35 -18
35 6 0 20 -13 33 -30z m-181 -42 c10 -13 18 -31 19 -40 0 -17 -44 -58 -64 -58
-6 0 -38 -11 -71 -25 -81 -33 -95 -32 -95 4 0 17 5 33 10 36 6 3 10 -4 10 -16
0 -19 4 -21 31 -15 44 9 59 28 59 79 0 48 6 55 53 56 18 1 36 -7 48 -21z
m-138 -15 c-3 -7 -16 -13 -28 -13 -13 0 -27 -5 -30 -10 -7 -11 -25 -4 -25 9 0
9 49 28 71 27 10 0 15 -6 12 -13z m-233 -31 c0 -5 -11 -14 -25 -20 -32 -15
-35 -15 -35 -2 0 6 9 10 20 10 11 0 20 5 20 10 0 6 5 10 10 10 6 0 10 -4 10
-8z m-35 -43 c9 16 25 13 25 -4 0 -8 -6 -12 -14 -9 -9 3 -15 -4 -18 -21 -5
-25 12 -49 20 -27 5 17 29 15 36 -4 6 -15 -27 -34 -87 -49 l-27 -7 2 63 c3 70
13 86 39 63 11 -10 19 -12 24 -5z m257 6 c0 -5 -5 -11 -11 -13 -6 -2 -11 4
-11 13 0 9 5 15 11 13 6 -2 11 -8 11 -13z m-464 -24 c10 -6 11 -17 4 -43 -7
-25 -6 -41 4 -59 20 -36 17 -45 -8 -22 -31 28 -68 15 -69 -24 0 -25 -1 -26 -9
-7 -17 42 -23 133 -10 149 13 16 67 20 88 6z m1522 -75 c0 -11 -507 -122 -516
-113 -3 2 21 10 53 16 101 18 245 51 338 75 88 24 125 30 125 22z m-386 -22
c3 -8 2 -12 -4 -9 -6 3 -10 10 -10 16 0 14 7 11 14 -7z m-1531 -61 c7 -92 -3
-101 -61 -56 l-47 36 -5 -44 c-3 -30 -10 -44 -20 -44 -12 0 -16 17 -18 78 -3
88 3 93 58 52 44 -33 50 -32 50 10 0 27 4 35 19 35 15 0 19 -10 24 -67z m1402
57 c3 -5 1 -10 -4 -10 -6 0 -11 5 -11 10 0 6 2 10 4 10 3 0 8 -4 11 -10z m-25
-20 c0 -5 -2 -10 -4 -10 -3 0 -8 5 -11 10 -3 6 -1 10 4 10 6 0 11 -4 11 -10z
m-232 -25 c-3 -3 -9 2 -12 12 -6 14 -5 15 5 6 7 -7 10 -15 7 -18z m272 10 c0
-8 -2 -15 -4 -15 -2 0 -6 7 -10 15 -3 8 -1 15 4 15 6 0 10 -7 10 -15z m-1710
-67 c0 -52 -4 -76 -17 -90 -21 -23 -68 -23 -91 0 -19 19 -37 106 -26 123 9 15
24 -1 24 -26 0 -30 19 -72 35 -79 24 -9 35 12 39 70 2 32 5 62 5 67 1 4 8 7
16 7 12 0 15 -15 15 -72z m1580 62 c0 -5 -2 -10 -4 -10 -3 0 -8 5 -11 10 -3 6
-1 10 4 10 6 0 11 -4 11 -10z m-285 -9 c3 -5 1 -12 -5 -16 -5 -3 -10 1 -10 9
0 18 6 21 15 7z m355 -23 c0 -12 -6 -9 -26 13 -19 22 -19 22 4 8 12 -8 22 -17
22 -21z m34 17 c3 -8 1 -15 -4 -15 -6 0 -10 7 -10 15 0 8 2 15 4 15 2 0 6 -7
10 -15z m-414 -30 c0 -8 -2 -15 -4 -15 -2 0 -6 7 -10 15 -3 8 -1 15 4 15 6 0
10 -7 10 -15z m37 -6 c2 -16 -1 -19 -9 -11 -5 5 -7 15 -4 21 10 15 12 14 13
-10z m69 -17 c-4 -3 -11 0 -16 8 -15 24 -11 33 6 15 9 -9 13 -19 10 -23z m214
28 c0 -5 -2 -10 -4 -10 -3 0 -8 5 -11 10 -3 6 -1 10 4 10 6 0 11 -4 11 -10z
m-420 -10 c0 -5 -5 -10 -11 -10 -5 0 -7 5 -4 10 3 6 8 10 11 10 2 0 4 -4 4
-10z m235 -9 c-3 -5 -1 -12 5 -16 5 -3 10 -11 10 -18 0 -6 -6 -2 -14 8 -13 18
-13 35 0 35 3 0 3 -4 -1 -9z m35 -1 c0 -5 -2 -10 -4 -10 -3 0 -8 5 -11 10 -3
6 -1 10 4 10 6 0 11 -4 11 -10z m225 0 c-11 -5 -27 -9 -35 -9 -13 -1 -13 0 0
9 8 5 24 9 35 9 l20 0 -20 -9z m-707 -25 c-3 -3 -9 2 -12 12 -6 14 -5 15 5 6
7 -7 10 -15 7 -18z m117 15 c3 -5 1 -10 -4 -10 -6 0 -11 5 -11 10 0 6 2 10 4
10 3 0 8 -4 11 -10z m273 -15 c-3 -3 -9 2 -12 12 -6 14 -5 15 5 6 7 -7 10 -15
7 -18z m177 14 c-3 -3 -19 -6 -37 -6 -23 -1 -27 1 -15 6 23 8 57 9 52 0z
m2648 -3 c3 -8 -3 -47 -13 -87 -10 -41 -24 -103 -31 -139 -7 -35 -14 -59 -16
-53 -3 7 5 59 16 117 30 147 29 148 -16 140 -98 -16 -396 -85 -415 -95 -16 -9
-19 -8 -16 3 4 12 168 59 373 106 111 25 112 25 118 8z m-4442 -24 c1 -4 2
-33 3 -66 2 -49 0 -56 -10 -41 -8 10 -15 22 -16 26 -6 19 -47 -4 -50 -27 -7
-53 -23 -26 -26 43 l-3 72 33 9 c31 9 67 0 69 -16z m1163 -2 c-6 -6 -10 -3
-10 10 0 13 4 16 10 10 7 -7 7 -13 0 -20z m261 0 c9 -16 11 -30 6 -30 -5 0
-14 14 -20 30 -5 17 -8 30 -6 30 3 0 11 -13 20 -30z m435 20 c-34 -11 -60 -11
-35 0 11 5 29 8 40 8 16 0 15 -2 -5 -8z m-350 -53 c0 -21 -25 2 -32 29 l-7 29
19 -25 c11 -14 20 -29 20 -33z m-256 28 c-4 -8 -11 -15 -16 -15 -6 0 -5 6 2
15 7 8 14 15 16 15 2 0 1 -7 -2 -15z m280 -25 c-6 -5 -24 21 -24 34 0 6 6 1
14 -10 8 -10 12 -21 10 -24z m246 30 c-34 -11 -60 -11 -35 0 11 5 29 8 40 8
16 0 15 -2 -5 -8z m-1905 -10 c3 -5 1 -10 -4 -10 -6 0 -11 5 -11 10 0 6 2 10
4 10 3 0 8 -4 11 -10z m1225 6 c0 -3 -4 -8 -10 -11 -5 -3 -10 -1 -10 4 0 6 5
11 10 11 6 0 10 -2 10 -4z m190 -17 c0 -6 -4 -7 -10 -4 -5 3 -10 11 -10 16 0
6 5 7 10 4 6 -3 10 -11 10 -16z m45 10 c11 -17 -1 -21 -15 -4 -8 9 -8 15 -2
15 6 0 14 -5 17 -11z m132 -4 c0 -8 -4 -15 -9 -15 -4 0 -8 7 -8 15 0 8 4 15 8
15 5 0 9 -7 9 -15z m128 5 c-9 -15 -44 -18 -49 -5 -3 10 4 13 24 13 16 -1 27
-4 25 -8z m-411 -16 c3 -8 2 -12 -4 -9 -6 3 -10 10 -10 16 0 14 7 11 14 -7z
m486 0 c-108 -27 -366 -82 -410 -88 -74 -10 -14 10 73 24 42 7 77 17 77 21 0
5 -4 9 -10 9 -5 0 -10 5 -10 10 0 6 7 10 15 10 8 0 15 -7 15 -16 0 -19 28 -15
165 21 50 13 101 23 115 23 14 0 0 -6 -30 -14z m-1914 -80 c39 -69 39 -91 1
-56 -30 29 -38 28 -72 -8 -28 -29 -55 -39 -55 -21 0 22 71 161 80 156 5 -3 26
-35 46 -71z m1364 54 c0 -6 -6 -5 -15 2 -8 7 -15 14 -15 16 0 2 7 1 15 -2 8
-4 15 -11 15 -16z m130 -30 c0 -4 -5 -8 -12 -8 -6 0 -9 3 -5 6 3 4 0 13 -8 21
-8 8 -15 19 -15 25 0 6 9 1 20 -12 11 -13 20 -27 20 -32z m34 23 c-7 21 24 34
42 18 24 -20 15 -35 -20 -37 -26 -2 -38 3 -45 17 -17 31 -13 35 9 10 12 -14
18 -17 14 -8z m92 -9 c-4 -3 -11 0 -16 8 -15 24 -11 33 6 15 9 -9 13 -19 10
-23z m-445 1 c-12 -20 -14 -14 -5 12 4 9 9 14 11 11 3 -2 0 -13 -6 -23z m30 4
c-10 -9 -11 -8 -5 6 3 10 9 15 12 12 3 -3 0 -11 -7 -18z m63 7 c3 -8 2 -12 -4
-9 -6 3 -10 10 -10 16 0 14 7 11 14 -7z m42 -23 c2 -2 10 2 19 9 10 8 15 9 15
1 0 -6 -4 -11 -10 -11 -5 0 -10 -4 -10 -10 0 -5 7 -7 15 -4 9 4 15 0 15 -7 0
-11 3 -11 10 1 9 13 11 13 20 0 10 -16 13 -9 11 25 0 14 1 16 6 5 12 -28 43
-35 43 -9 0 6 -4 8 -9 5 -5 -3 -12 1 -15 10 -6 15 -4 15 16 2 42 -28 33 -42
-39 -54 -16 -3 -41 -9 -58 -14 -16 -5 -46 -11 -66 -13 -20 -3 -42 -8 -48 -11
-17 -11 -13 0 7 20 16 17 16 18 0 11 -10 -3 -18 -2 -18 3 0 9 15 14 23 8 1 -1
12 4 24 10 17 9 22 9 27 -3 3 -8 13 -15 23 -15 10 0 14 3 8 8 -11 7 -35 57
-35 70 0 4 6 -2 12 -13 6 -11 12 -22 14 -24z m414 35 c0 -2 -11 -6 -25 -8 -14
-3 -25 -1 -25 3 0 5 11 9 25 9 14 0 25 -2 25 -4z m-350 -30 c0 -3 -4 -8 -10
-11 -5 -3 -10 -1 -10 4 0 6 5 11 10 11 6 0 10 -2 10 -4z m-110 -10 c0 -3 -4
-8 -10 -11 -5 -3 -10 -1 -10 4 0 6 5 11 10 11 6 0 10 -2 10 -4z m-1530 -13 c0
-19 -54 -163 -61 -163 -11 0 -89 121 -89 138 0 23 17 12 45 -28 15 -22 31 -37
35 -35 5 3 16 25 26 50 9 25 23 45 30 45 8 0 14 -3 14 -7z m1440 -14 c0 10 6
8 21 -8 12 -13 18 -26 13 -31 -14 -14 -96 -41 -129 -43 -16 -1 -33 -6 -37 -12
-5 -6 -12 -4 -18 5 -8 12 -10 9 -10 -12 0 -23 -4 -28 -22 -27 -17 1 -19 2 -5
6 9 2 17 9 17 15 0 5 -7 8 -15 4 -8 -3 -19 3 -25 12 -10 15 -10 15 -8 -2 2
-14 -4 -20 -22 -23 -14 -2 -36 -5 -50 -7 -14 -2 -31 -4 -37 -5 -7 -1 -13 -6
-13 -11 0 -6 17 -8 43 -5 42 4 42 4 -8 -9 -66 -17 -148 -28 -118 -16 17 7 20
15 18 44 -2 20 0 36 5 36 14 0 19 -27 7 -39 -9 -9 -7 -11 8 -6 16 5 17 5 5 -4
-8 -5 -12 -13 -9 -16 9 -9 40 6 33 16 -3 5 -10 24 -14 42 -9 31 -9 32 8 11 18
-21 52 -28 52 -11 0 5 -7 7 -15 3 -21 -8 -19 0 7 26 14 14 19 16 15 6 -3 -10
0 -19 9 -22 9 -3 12 -10 9 -16 -3 -5 -1 -10 6 -10 7 0 9 8 4 23 -3 12 -8 34
-10 49 l-5 28 21 -21 c11 -11 25 -17 31 -13 6 4 8 3 4 -4 -3 -6 -1 -14 5 -18
8 -5 10 1 6 22 -4 23 -3 26 6 14 7 -8 18 -16 26 -18 11 -2 10 2 -3 22 -28 44
-17 42 15 -2 30 -41 40 -50 38 -34 -4 21 3 23 27 7 25 -16 25 -16 14 5 -6 12
-9 26 -6 33 3 7 5 6 5 -3 1 -18 40 -54 49 -46 3 4 -3 13 -14 21 -18 14 -18 14
6 16 14 1 31 2 38 2 14 -1 16 13 2 22 -5 3 -10 11 -10 18 0 6 7 2 15 -9 10
-14 14 -15 15 -5z m2933 -13 c38 -48 34 -67 -6 -28 -21 20 -39 30 -52 27 -11
-2 -81 -16 -155 -30 -74 -14 -145 -29 -157 -32 -13 -3 -23 -1 -23 5 0 10 81
30 240 58 52 9 99 20 105 25 14 14 18 12 48 -25z m-3010 9 c-3 -9 -8 -14 -10
-11 -3 3 -2 9 2 15 9 16 15 13 8 -4z m32 6 c3 -5 2 -12 -3 -15 -5 -3 -9 1 -9
9 0 17 3 19 12 6z m-110 -11 c3 -5 1 -10 -4 -10 -6 0 -11 5 -11 10 0 6 2 10 4
10 3 0 8 -4 11 -10z m33 -25 c-3 -3 -9 2 -12 12 -6 14 -5 15 5 6 7 -7 10 -15
7 -18z m3471 -12 c-6 -21 -18 -84 -29 -141 -11 -56 -27 -128 -35 -160 -9 -31
-22 -86 -30 -122 -7 -36 -20 -92 -29 -125 -8 -33 -27 -116 -42 -184 -26 -118
-26 -132 -20 -315 3 -105 7 -204 9 -219 2 -26 -2 -29 -68 -52 -38 -13 -77 -24
-85 -25 -13 0 -15 28 -17 187 -2 103 -8 214 -14 248 -10 57 -71 243 -122 370
-78 195 -159 416 -155 420 8 8 141 45 146 41 3 -4 93 -260 166 -473 17 -51 34
-93 37 -93 4 0 9 24 13 53 4 28 14 78 22 110 21 81 51 254 64 372 7 55 13 101
13 101 8 7 138 42 158 43 26 1 27 0 18 -36z m-3489 13 c0 -3 -4 -8 -10 -11 -5
-3 -10 -1 -10 4 0 6 5 11 10 11 6 0 10 -2 10 -4z m260 -21 c-105 -27 -151 -31
-80 -8 56 18 118 31 150 31 14 0 -18 -10 -70 -23z m-562 1 c-7 -8 -15 -12 -17
-11 -5 6 10 25 20 25 5 0 4 -6 -3 -14z m52 -6 c0 -5 -2 -10 -4 -10 -3 0 -8 5
-11 10 -3 6 -1 10 4 10 6 0 11 -4 11 -10z m-89 -17 c13 -16 12 -17 -3 -4 -10
7 -18 15 -18 17 0 8 8 3 21 -13z m-42 -14 c-16 -10 -23 -4 -14 10 3 6 11 8 17
5 6 -4 5 -9 -3 -15z m-74 -9 c3 -5 1 -10 -4 -10 -6 0 -11 5 -11 10 0 6 2 10 4
10 3 0 8 -4 11 -10z m126 -50 c4 0 13 13 20 29 14 32 29 32 29 0 0 -11 -4 -17
-10 -14 -5 3 -7 0 -4 -8 4 -11 -6 -17 -38 -22 -47 -7 -147 -31 -174 -42 -12
-4 -15 -3 -10 6 4 6 2 19 -5 27 -6 8 -9 17 -6 21 4 3 15 -5 26 -18 18 -21 20
-21 21 -6 0 10 -4 16 -8 13 -4 -2 -8 4 -8 15 0 18 2 18 12 5 6 -9 14 -16 18
-16 11 0 6 28 -6 33 -7 3 -8 6 -3 6 6 0 21 -8 35 -19 20 -15 21 -20 8 -20 -9
0 -19 -4 -22 -9 -3 -4 9 -5 26 -2 17 4 33 12 34 19 1 7 0 8 -3 2 -3 -8 -9 -7
-19 1 -22 18 -17 26 16 27 17 0 30 -4 30 -9 0 -6 5 -7 11 -3 8 5 8 9 -1 14 -8
5 -9 13 -4 21 6 10 11 5 18 -19 5 -17 12 -32 17 -32z m12 45 c-3 -9 -8 -14
-10 -11 -3 3 -2 9 2 15 9 16 15 13 8 -4z m-183 -5 c0 -5 -2 -10 -4 -10 -3 0
-8 5 -11 10 -3 6 -1 10 4 10 6 0 11 -4 11 -10z m-80 -10 c0 -5 -2 -10 -4 -10
-3 0 -8 5 -11 10 -3 6 -1 10 4 10 6 0 11 -4 11 -10z m597 4 c-3 -3 -12 -4 -19
-1 -8 3 -5 6 6 6 11 1 17 -2 13 -5z m2653 -1 c0 -5 -33 -8 -73 -9 -61 -1 -198
-26 -402 -74 -78 -19 -145 -27 -145 -19 0 5 3 9 8 9 12 0 241 48 352 74 100
24 260 35 260 19z m-3276 -19 c5 -14 4 -15 -9 -4 -17 14 -19 20 -6 20 5 0 12
-7 15 -16z m60 0 c3 -8 2 -12 -4 -9 -6 3 -10 10 -10 16 0 14 7 11 14 -7z m469
-1 c-7 -2 -19 -2 -25 0 -7 3 -2 5 12 5 14 0 19 -2 13 -5z m-479 -28 c5 0 11
-6 14 -14 3 -8 0 -11 -6 -7 -6 3 -12 0 -15 -6 -5 -16 -13 -10 -22 21 -6 18 -4
22 6 15 8 -5 18 -9 23 -9z m-144 -50 c6 18 7 18 13 1 8 -21 0 -39 -14 -30 -5
3 -16 1 -24 -6 -7 -6 -26 -13 -42 -15 -15 -2 -28 -4 -28 -5 0 -2 -16 -5 -59
-14 -16 -3 -26 -2 -22 1 3 4 -1 14 -9 23 -13 15 -13 17 0 17 8 0 13 -3 10 -5
-3 -3 0 -11 5 -18 14 -16 50 -6 43 12 -3 8 0 14 6 14 6 0 11 -4 11 -10 0 -5 5
-10 10 -10 7 0 7 6 0 20 -7 14 -7 20 0 20 5 0 10 -7 10 -15 0 -8 7 -15 15 -15
13 0 14 4 4 21 -8 16 -8 24 1 33 6 6 11 7 10 1 -6 -27 0 -37 14 -26 8 7 12 22
9 34 -3 14 2 9 13 -12 15 -28 19 -31 24 -16z m10 35 c0 -5 -2 -10 -4 -10 -3 0
-8 5 -11 10 -3 6 -1 10 4 10 6 0 11 -4 11 -10z m110 -41 c0 -20 -28 5 -33 29
l-5 27 19 -24 c10 -13 19 -27 19 -32z m-35 -18 c-9 -8 -25 21 -25 44 0 16 3
14 15 -9 9 -16 13 -32 10 -35z m81 33 c-30 -21 -45 -16 -16 6 14 10 27 16 30
13 3 -2 -4 -11 -14 -19z m204 16 c-14 -4 -36 -8 -50 -8 l-25 0 25 8 c14 4 36
8 50 8 l25 0 -25 -8z m-80 -14 c0 -7 -141 -39 -146 -33 -3 2 21 11 53 20 59
15 93 20 93 13z m-240 -27 c0 -6 -4 -7 -10 -4 -5 3 -10 11 -10 16 0 6 5 7 10
4 6 -3 10 -11 10 -16z m-241 8 c-2 -1 -13 -9 -24 -17 -19 -14 -19 -14 -6 3 7
9 18 17 24 17 6 0 8 -1 6 -3z m3593 -43 c22 -16 50 -41 61 -56 22 -29 24 -53
52 -578 8 -151 19 -310 25 -353 l11 -78 -40 -54 c-66 -87 -88 -99 -271 -144
-91 -22 -173 -43 -181 -46 -15 -6 -20 46 -49 585 -33 594 -36 619 -76 661
l-26 28 38 6 c22 4 98 20 169 36 165 36 229 34 287 -7z m-3345 0 c-3 -3 -12
-4 -19 -1 -8 3 -5 6 6 6 11 1 17 -2 13 -5z m2632 -5 c72 -15 72 -27 0 -16 -89
15 -139 5 -664 -118 -276 -65 -558 -125 -564 -119 -10 9 16 17 200 54 107 22
266 58 354 79 358 88 545 129 597 130 15 1 50 -4 77 -10z m-2959 -13 c-7 -7
-13 -7 -20 0 -6 6 -3 10 10 10 13 0 16 -4 10 -10z m265 4 c-16 -4 -39 -8 -50
-8 -16 0 -15 2 5 8 14 4 36 8 50 8 22 0 22 -1 -5 -8z m-310 -10 c3 -5 1 -10
-4 -10 -6 0 -11 5 -11 10 0 6 2 10 4 10 3 0 8 -4 11 -10z m75 -10 c0 -5 -4
-10 -10 -10 -5 0 -10 5 -10 10 0 6 5 10 10 10 6 0 10 -4 10 -10z m157 4 c-3
-3 -12 -4 -19 -1 -8 3 -5 6 6 6 11 1 17 -2 13 -5z m-187 -8 c0 -3 -4 -8 -10
-11 -5 -3 -10 -1 -10 4 0 6 5 11 10 11 6 0 10 -2 10 -4z m-160 -26 c0 -5 -2
-10 -4 -10 -3 0 -8 5 -11 10 -3 6 -1 10 4 10 6 0 11 -4 11 -10z m4677 -52 c-3
-8 -6 -5 -6 6 -1 11 2 17 5 13 3 -3 4 -12 1 -19z m-4837 -8 c0 -5 -2 -10 -4
-10 -3 0 -8 5 -11 10 -3 6 -1 10 4 10 6 0 11 -4 11 -10z m3319 -31 c63 -46 68
-65 75 -269 9 -289 26 -606 36 -704 7 -73 6 -94 -6 -118 -18 -35 -80 -105
-105 -119 -18 -9 -371 -101 -374 -96 -1 1 -7 112 -14 247 -47 958 -44 921 -76
975 -15 26 -25 49 -22 51 3 4 223 45 337 63 60 9 109 -1 149 -30z m-3592 -55
c-3 -3 -12 -4 -19 -1 -8 3 -5 6 6 6 11 1 17 -2 13 -5z m2961 -112 c2 -61 -1
-83 -10 -86 -7 -2 -69 -13 -138 -26 -69 -12 -129 -23 -134 -24 -9 -2 -9 -373
0 -388 3 -4 13 -3 22 2 35 21 187 69 194 62 4 -4 12 -36 16 -71 9 -64 0 -91
-31 -91 -7 0 -52 -12 -101 -27 l-88 -27 6 -35 c3 -20 6 -118 6 -219 l0 -182
28 6 c15 4 77 22 137 41 61 19 120 37 131 40 20 4 22 -1 31 -74 6 -43 8 -81 4
-85 -3 -4 -42 -14 -86 -23 -106 -22 -345 -74 -371 -81 -20 -5 -21 -3 -17 73 2
43 -2 180 -10 305 -13 200 -17 232 -36 264 -19 32 -20 41 -10 66 8 21 10 92 7
251 -4 201 -7 226 -26 263 -22 44 -20 54 10 54 27 0 367 76 398 89 14 5 34 9
45 8 18 -2 20 -10 23 -85z m-690 -12 c71 -23 56 -25 -38 -4 -61 14 -85 15
-152 6 -126 -18 -421 -83 -445 -98 -20 -13 -23 -13 -23 0 0 15 10 19 135 50
68 17 305 63 350 69 48 6 111 -3 173 -23z m-42 -117 c17 -8 44 -27 60 -44 29
-30 29 -31 35 -192 4 -89 10 -174 14 -188 9 -37 -27 -117 -76 -165 -22 -21
-39 -48 -39 -60 0 -30 101 -322 156 -450 25 -59 43 -108 41 -110 -4 -4 -141
-23 -143 -20 0 0 -12 33 -26 71 -33 87 -86 220 -142 350 -24 55 -49 126 -56
158 l-12 57 40 48 c22 26 52 58 66 71 26 24 26 27 26 160 0 151 -4 178 -29
185 -9 3 -54 -5 -101 -18 l-85 -23 3 -79 c1 -43 7 -178 12 -299 5 -121 12
-339 15 -485 l5 -265 -67 -18 c-38 -9 -71 -17 -75 -17 -5 0 -8 44 -8 98 0 53
-5 165 -10 247 -5 83 -14 305 -20 495 -10 339 -11 345 -35 386 -14 24 -25 47
-25 52 0 5 24 13 53 16 28 4 90 17 137 28 154 38 222 41 286 11z m-801 -24 c8
-11 7 -780 0 -788 -3 -2 -5 156 -5 351 0 196 -3 370 -6 388 l-7 32 -71 -7
c-98 -9 -250 -41 -286 -60 -24 -12 -30 -13 -30 -2 0 18 209 69 392 96 4 1 10
-4 13 -10z m-480 -150 c45 -63 36 -79 -12 -21 -35 42 -36 43 -82 36 -25 -3
-80 -14 -121 -24 -41 -11 -141 -31 -222 -45 -81 -14 -163 -32 -182 -40 -41
-17 -46 -18 -46 -7 0 12 92 36 292 77 95 19 205 44 243 54 39 11 75 20 82 20
6 1 28 -22 48 -50z m339 -21 c3 -18 8 -283 11 -588 3 -305 8 -580 11 -611 l6
-56 -68 -15 c-38 -8 -70 -14 -72 -12 -2 1 -14 51 -28 111 -13 59 -28 119 -34
133 -5 14 -47 122 -94 240 -46 118 -90 236 -96 262 -7 26 -18 52 -26 59 -11 9
-12 1 -9 -48 3 -32 6 -231 7 -443 l3 -384 -68 -14 c-38 -7 -71 -11 -74 -8 -3
3 -9 273 -13 600 -7 567 -9 597 -28 636 -18 38 -18 40 -2 40 10 0 47 9 82 20
l63 20 15 -21 c13 -20 139 -299 175 -389 53 -133 84 -201 91 -200 4 0 7 19 5
43 -2 23 -7 161 -11 307 -4 146 -11 275 -15 288 -6 18 -4 22 16 23 13 0 49 8
79 19 30 10 58 18 62 19 4 1 9 -14 12 -31z m3703 -75 c-2 -21 -4 -4 -4 37 0
41 2 58 4 38 2 -21 2 -55 0 -75z m-4788 -27 c-7 -7 -122 -34 -169 -40 -28 -3
-10 4 45 19 84 22 134 30 124 21z m349 -527 c1 -266 6 -526 10 -577 8 -101 8
-102 -50 -179 -43 -57 -78 -75 -190 -98 -146 -31 -215 -10 -256 77 -18 38 -21
72 -27 323 -10 416 -29 766 -43 792 -17 31 -16 33 21 33 19 0 56 7 82 15 27 8
51 13 53 11 2 -2 8 -96 13 -208 5 -111 14 -264 19 -338 6 -74 13 -228 17 -342
7 -249 6 -246 99 -222 32 8 72 23 89 33 l30 17 -3 100 c-1 54 -7 293 -12 529
-5 237 -12 444 -16 462 l-6 31 53 7 c30 4 63 11 74 16 11 4 24 6 30 5 6 -2 11
-179 13 -487z m-603 466 c-22 -8 -50 -14 -62 -14 -13 -1 -23 -5 -23 -11 0 -5
-4 -10 -10 -10 -5 0 -10 6 -10 13 0 8 21 17 53 24 74 14 99 13 52 -2z m5052
-258 c-1 -45 -3 -5 -3 88 0 94 2 130 3 82 2 -48 2 -125 0 -170z m-5242 178
c46 -28 43 -32 -10 -9 -49 20 -106 14 -343 -37 -101 -22 -188 -39 -193 -37
-14 5 438 103 491 107 8 0 33 -10 55 -24z m-566 -89 c-12 -10 -60 -16 -54 -6
3 5 18 10 32 10 15 0 24 -2 22 -4z m-109 -31 c0 -8 -2 -15 -4 -15 -2 0 -6 7
-10 15 -3 8 -1 15 4 15 6 0 10 -7 10 -15z m-43 -1 c-3 -3 -12 -4 -19 -1 -8 3
-5 6 6 6 11 1 17 -2 13 -5z m712 -14 c75 -38 77 -45 85 -270 6 -194 6 -204
-15 -246 -11 -25 -39 -63 -61 -85 l-40 -41 20 -62 c33 -99 151 -415 167 -446
22 -43 20 -47 -37 -53 -29 -3 -60 -8 -69 -11 -17 -7 -29 19 -105 229 -53 148
-156 359 -162 333 -2 -10 -9 -18 -17 -18 -9 0 -15 -26 -20 -96 -8 -105 -1
-487 10 -520 6 -19 3 -21 -19 -17 -24 5 -87 -7 -130 -23 -15 -6 -16 9 -14 152
2 88 -2 355 -9 594 l-12 434 -31 43 c-37 54 -37 63 -2 63 15 0 90 13 167 29
171 36 242 38 294 11z m-762 4 c-3 -3 -12 -4 -19 -1 -8 3 -5 6 6 6 11 1 17 -2
13 -5z m-50 -10 c-3 -3 -12 -4 -19 -1 -8 3 -5 6 6 6 11 1 17 -2 13 -5z m-120
-30 c-3 -3 -12 -4 -19 -1 -8 3 -5 6 6 6 11 1 17 -2 13 -5z m-437 -94 c-14 -4
-34 -8 -45 -8 -16 0 -15 2 5 8 14 4 34 8 45 8 16 0 15 -2 -5 -8z m622 -107
c15 -65 34 -158 43 -208 9 -49 25 -132 36 -183 10 -51 26 -141 35 -200 21
-151 84 -474 99 -514 4 -10 -13 -18 -72 -30 -43 -9 -79 -15 -80 -14 -1 1 -11
60 -22 131 -12 72 -24 145 -26 163 -4 23 -11 32 -25 32 -10 0 -21 -4 -24 -9
-3 -4 -41 -19 -85 -31 l-80 -23 -7 -56 c-4 -31 -8 -107 -8 -168 l-1 -113 -25
0 c-14 0 -52 -7 -85 -14 -33 -8 -61 -13 -63 -12 -1 2 7 75 18 162 25 197 25
193 -4 204 -25 9 -66 67 -66 94 0 12 10 16 38 16 20 0 42 4 48 8 10 7 57 361
69 522 10 143 27 295 34 302 9 10 172 57 201 57 24 1 27 -4 52 -116z m-752 83
c0 -2 -7 -7 -16 -10 -8 -3 -12 -2 -9 4 6 10 25 14 25 6z m-120 -76 c11 -22 19
-40 17 -40 -3 0 -16 18 -31 40 -14 22 -22 40 -16 40 5 0 19 -18 30 -40z m365
-101 c-9 -63 -22 -161 -31 -219 -19 -133 -39 -294 -54 -435 -7 -60 -25 -187
-41 -282 -16 -94 -29 -199 -29 -232 0 -34 -1 -61 -2 -61 -13 0 -167 -30 -179
-35 -13 -5 -22 24 -57 167 -23 95 -51 217 -62 271 -11 54 -27 124 -35 155 -8
32 -24 105 -35 164 -26 134 -95 372 -121 416 -10 18 -19 37 -19 41 0 9 169 45
176 38 17 -16 103 -388 144 -622 12 -66 30 -149 40 -185 10 -36 22 -78 26 -95
9 -38 10 -32 29 150 8 83 33 276 54 430 22 154 43 307 47 341 l6 61 77 25 c42
14 77 24 79 23 2 -2 -4 -54 -13 -116z m-538 105 c-3 -3 -12 -4 -19 -1 -8 3 -5
6 6 6 11 1 17 -2 13 -5z m7201 -203 c3 -10 -2 -11 -19 -5 -29 9 -24 9 -129 1
-101 -8 -95 -1 10 12 96 11 132 9 138 -8z m-241 -17 c-3 -3 -12 -4 -19 -1 -8
3 -5 6 6 6 11 1 17 -2 13 -5z m-92 -20 c-27 -7 -54 -13 -60 -13 -17 2 69 27
90 27 11 0 -2 -6 -30 -14z m-78 -20 c-3 -3 -12 -4 -19 -1 -8 3 -5 6 6 6 11 1
17 -2 13 -5z m-134 -31 c-7 -2 -19 -2 -25 0 -7 3 -2 5 12 5 14 0 19 -2 13 -5z
m-76 -19 c-3 -3 -12 -4 -19 -1 -8 3 -5 6 6 6 11 1 17 -2 13 -5z m511 -40 c2
-27 -2 -47 -12 -57 -13 -13 -220 -66 -551 -141 -60 -14 -180 -41 -265 -61
-277 -63 -631 -143 -800 -180 -91 -20 -208 -47 -260 -60 -52 -13 -169 -40
-260 -59 -91 -19 -266 -59 -390 -89 -124 -30 -317 -76 -430 -102 -113 -26
-288 -66 -390 -90 -102 -24 -228 -53 -280 -65 -52 -12 -142 -33 -200 -46 -58
-14 -193 -44 -300 -69 -107 -24 -332 -76 -500 -114 -168 -39 -359 -82 -425
-97 -66 -14 -163 -37 -215 -50 -52 -12 -178 -41 -280 -64 -203 -44 -398 -89
-680 -155 -324 -76 -694 -158 -719 -159 -20 -1 -26 6 -34 34 -5 19 -14 41 -20
48 -12 15 6 32 35 32 10 0 80 15 155 34 76 19 235 55 353 81 118 25 278 61
355 80 77 19 246 57 375 85 129 28 264 58 300 66 36 9 193 44 350 79 157 35
341 77 410 94 153 36 370 86 635 146 110 25 254 59 320 74 161 39 504 119 815
191 140 32 372 86 515 119 143 34 330 77 415 96 85 20 184 43 219 51 35 8 136
30 225 49 142 30 540 119 1090 245 98 22 221 51 275 64 53 14 105 27 116 29
41 10 50 3 53 -39z m-561 30 c-3 -3 -12 -4 -19 -1 -8 3 -5 6 6 6 11 1 17 -2
13 -5z m-3045 -251 c2 -99 0 -179 -4 -176 -5 2 -7 97 -6 211 1 241 6 225 10
-35z m2778 193 c0 -6 -102 -27 -107 -22 -3 2 15 9 39 14 51 12 68 14 68 8z
m-1030 -893 c0 -9 -13 -40 -30 -70 -16 -29 -30 -66 -30 -82 0 -16 -6 -31 -14
-34 -19 -7 -26 1 -26 31 0 16 -16 38 -47 67 -40 37 -45 46 -34 59 18 22 28 20
53 -9 20 -24 48 -34 48 -17 0 4 9 22 20 40 21 34 60 45 60 15z m-326 -83 c14
-5 32 -22 40 -38 29 -57 -5 -110 -92 -142 -30 -11 -57 -19 -59 -17 -2 3 -5 40
-7 83 -1 44 -6 87 -10 96 -6 13 -1 17 21 21 52 8 82 7 107 -3z m-293 -99 c51
-51 30 -110 -54 -149 -88 -42 -87 -43 -87 37 0 38 -4 81 -10 95 -8 23 -7 26
18 32 15 3 32 7 37 9 34 11 69 3 96 -24z m-301 -55 c0 -20 -7 -26 -32 -31 -55
-11 -68 -16 -68 -26 0 -5 20 -9 43 -9 59 0 67 -12 16 -25 -59 -14 -58 -30 1
-41 28 -5 51 -13 51 -19 0 -5 -23 -13 -51 -16 -27 -4 -57 -9 -65 -13 -20 -7
-22 1 -30 96 l-6 77 28 6 c15 3 42 10 58 14 48 14 55 12 55 -13z m-285 -80
c15 -22 15 -27 0 -56 -16 -31 -16 -33 4 -54 12 -12 21 -25 21 -29 0 -13 -45
-7 -64 8 -29 22 -36 19 -36 -15 0 -25 -4 -30 -24 -30 -20 0 -24 6 -30 46 -3
26 -6 68 -6 95 0 53 4 56 77 58 35 1 45 -4 58 -23z m-451 -82 c3 -9 6 -54 6
-100 0 -98 -8 -104 -69 -49 -21 19 -41 35 -44 35 -3 0 -7 -21 -9 -47 -2 -34
-7 -48 -18 -48 -14 0 -38 100 -39 168 -1 35 11 34 70 -4 57 -36 73 -31 66 22
-4 33 -2 39 13 39 10 0 21 -7 24 -16z m-304 -142 l0 -88 -39 -22 c-21 -12 -47
-22 -58 -22 -27 0 -50 47 -59 118 -5 52 -4 62 9 62 10 0 17 -16 22 -55 4 -37
12 -58 24 -64 30 -17 44 4 49 71 5 65 14 88 38 88 11 0 14 -20 14 -88z m-316
-28 c18 -17 21 -40 7 -48 -11 -7 -2 -57 15 -77 32 -36 -22 -40 -56 -4 -29 30
-40 32 -40 4 0 -45 -50 -86 -50 -41 0 9 -5 50 -10 91 -8 58 -7 77 3 83 22 14
115 9 131 -8z m-313 -102 c51 -80 61 -102 55 -118 -7 -19 -32 -18 -40 1 -10
26 -62 18 -99 -15 -39 -34 -47 -36 -47 -15 0 42 67 205 84 205 6 0 27 -26 47
-58z m-246 -9 c-4 -10 -18 -54 -32 -98 -25 -79 -46 -115 -67 -115 -13 0 -96
161 -96 185 0 9 9 15 23 15 19 0 27 -8 37 -40 25 -76 48 -73 70 10 13 48 23
60 54 60 13 0 16 -5 11 -17z"/>
<path d="M5898 6950 c-28 -17 -11 -41 26 -37 23 2 31 8 31 23 0 22 -31 29 -57
14z"/>
<path d="M5918 6893 c-10 -2 -18 -8 -18 -13 0 -4 9 -6 20 -3 11 3 20 9 20 14
0 5 -1 8 -2 8 -2 -1 -11 -3 -20 -6z"/>
<path d="M5529 6843 c0 -5 -2 -18 -5 -30 -2 -13 1 -23 6 -23 6 0 10 14 10 30
0 26 -9 44 -11 23z"/>
<path d="M5287 6813 c-11 -10 -8 -53 3 -53 13 0 60 41 60 52 0 10 -54 11 -63
1z"/>
<path d="M4337 6603 c-4 -3 -7 -17 -7 -30 0 -18 5 -23 25 -23 14 0 28 7 31 15
11 27 -30 58 -49 38z"/>
<path d="M4100 6500 c0 -5 5 -10 10 -10 6 0 10 5 10 10 0 6 -4 10 -10 10 -5 0
-10 -4 -10 -10z"/>
<path d="M5700 6551 c0 -5 5 -13 10 -16 6 -3 10 -2 10 4 0 5 -4 13 -10 16 -5
3 -10 2 -10 -4z"/>
<path d="M5420 6480 c0 -5 5 -10 10 -10 6 0 10 5 10 10 0 6 -4 10 -10 10 -5 0
-10 -4 -10 -10z"/>
<path d="M5298 6443 c7 -3 16 -2 19 1 4 3 -2 6 -13 5 -11 0 -14 -3 -6 -6z"/>
<path d="M5064 6429 c-4 -7 -2 -15 4 -17 7 -2 9 -9 6 -14 -4 -6 -2 -8 4 -5 10
7 11 32 0 42 -3 4 -9 1 -14 -6z"/>
<path d="M5130 6421 c0 -6 4 -13 10 -16 6 -3 7 1 4 9 -7 18 -14 21 -14 7z"/>
<path d="M4457 6273 c-4 -3 -7 -13 -7 -22 1 -13 3 -13 11 2 11 19 8 33 -4 20z"/>
<path d="M7692 6096 l-82 -21 5 -85 c6 -88 18 -228 35 -410 5 -58 12 -175 15
-260 3 -85 8 -170 11 -188 5 -33 6 -34 42 -28 20 4 66 21 102 39 l65 32 -1 45
c0 25 -13 230 -27 455 -26 386 -29 411 -48 428 -12 9 -24 16 -28 15 -3 0 -43
-10 -89 -22z"/>
<path d="M7030 5934 c-19 -7 -48 -13 -63 -13 l-28 -1 6 -62 c3 -35 10 -193 15
-353 17 -488 22 -565 36 -565 23 0 158 59 176 78 18 18 18 28 4 298 -9 153
-19 355 -24 447 -8 180 -11 188 -62 186 -14 -1 -41 -7 -60 -15z"/>
<path d="M3232 5065 c-18 -8 -54 -17 -80 -21 l-47 -6 3 -196 c2 -109 7 -210
11 -227 8 -33 41 -48 41 -18 0 10 36 52 81 94 l81 76 -8 154 c-8 143 -10 154
-29 156 -11 2 -35 -4 -53 -12z"/>
<path d="M2493 4828 c1 -24 -2 -74 -7 -113 -38 -339 -47 -404 -56 -435 -5 -19
-10 -38 -10 -42 0 -15 36 -8 113 23 53 21 77 36 77 48 0 27 -49 299 -69 386
-11 44 -22 101 -26 128 -9 59 -23 62 -22 5z"/>
<path d="M6414 3565 c-6 -15 3 -85 11 -85 2 0 16 5 30 12 26 12 41 47 31 73
-7 20 -65 20 -72 0z"/>
<path d="M6101 3482 c-11 -20 -3 -72 11 -72 28 0 48 23 48 55 0 31 -3 35 -25
35 -13 0 -29 -8 -34 -18z"/>
<path d="M5543 3363 c-16 -6 -17 -43 -2 -43 20 0 49 21 49 35 0 15 -23 18 -47
8z"/>
<path d="M4450 3095 c0 -11 11 -15 36 -15 31 0 35 2 24 15 -7 8 -23 15 -36 15
-15 0 -24 -6 -24 -15z"/>
<path d="M4175 3001 c-9 -15 8 -35 24 -30 8 3 7 10 -2 23 -10 14 -16 16 -22 7z"/>
</g>
</svg>
